<?xml version="1.0" encoding="UTF-8" standalone="no"?>
<!DOCTYPE svg PUBLIC "-//W3C//DTD SVG 1.1//EN" "http://www.w3.org/Graphics/SVG/1.1/DTD/svg11.dtd">
<svg width="100%" height="100%" viewBox="0 0 1550 360" version="1.1" xmlns="http://www.w3.org/2000/svg" xmlns:xlink="http://www.w3.org/1999/xlink" xml:space="preserve" xmlns:serif="http://www.serif.com/" style="fill-rule:evenodd;clip-rule:evenodd;stroke-linejoin:round;stroke-miterlimit:2;">
    <g transform="matrix(1,0,0,1,-1815.95,-1.7053e-13)">
        <g id="FinanSu-logo_all_horizontal_white" transform="matrix(4.30556,0,0,1,1815.95,1.7053e-13)">
            <rect x="0" y="0" width="360" height="360" style="fill:none;"/>
            <clipPath id="_clip1">
                <rect x="0" y="0" width="360" height="360"/>
            </clipPath>
            <g clip-path="url(#_clip1)">
                <g transform="matrix(1,0,0,1,-0.00240153,1.13687e-13)">
                    <g transform="matrix(0.777778,0,0,1,4.24297e-14,0)">
                        <g transform="matrix(0.899319,0,0,3.01161,-112.623,-497.613)">
                            <g id="背景">
                                <path d="M185,165.231C152.013,165.231 125.231,192.013 125.231,225C125.231,257.987 152.013,284.769 185,284.769C217.987,284.769 244.769,257.987 244.769,225C244.769,192.013 217.987,165.231 185,165.231ZM185,174.769C212.723,174.769 235.231,197.277 235.231,225C235.231,252.723 212.723,275.231 185,275.231C157.277,275.231 134.769,252.723 134.769,225C134.769,197.277 157.277,174.769 185,174.769Z" style="fill:white;"/>
                            </g>
                        </g>
                        <g transform="matrix(0.298617,0,0,1,-1.39137,0)">
                            <path d="M184.659,42.346C261.346,42.346 323.606,104.606 323.606,181.293C323.606,257.979 261.346,320.239 184.659,320.239C107.973,320.239 45.713,257.979 45.713,181.293C45.713,104.606 107.973,42.346 184.659,42.346ZM208.131,210.761C210.78,219.764 214.508,227.221 219.314,233.13C224.12,239.038 229.603,242.243 235.765,242.743L235.765,194.441C225.722,189.376 218.328,184.656 213.584,180.279C205.142,172.651 200.922,163.897 200.922,154.018C200.922,144.138 204.249,136.072 210.903,129.82C217.558,123.567 225.906,120.065 235.95,119.315L235.95,104.403L246.208,104.403L246.208,119.128C253.294,120.065 259.071,121.316 263.538,122.879C268.005,124.442 272.333,126.537 276.523,129.163L276.523,155.987L272.549,155.987C270.084,148.109 267.527,142.2 264.878,138.261C260.133,131.133 253.91,126.818 246.208,125.318L246.208,166.679C258.593,172.932 267.25,178.309 272.179,182.811C280.805,190.627 285.118,199.943 285.118,210.761C285.118,220.577 281.991,228.909 275.737,235.756C269.483,242.602 259.64,246.839 246.208,248.464L246.208,267.597L235.95,267.597L235.95,248.464C230.836,248.214 226.677,247.745 223.473,247.057C218.235,245.932 211.797,243.681 204.156,240.305L204.156,210.292L208.131,210.761ZM88.699,242.251C94.09,242.067 97.918,241.332 100.185,240.045C103.677,238.085 105.422,234.41 105.422,229.019L105.422,137.958C105.422,132.506 103.707,128.83 100.277,126.931C98.194,125.767 94.335,125.002 88.699,124.634L88.699,119.856L195.381,119.856L195.381,157.806L190.786,157.806C188.459,146.105 184.538,137.912 179.025,133.226C173.511,128.539 163.342,126.196 148.518,126.196C143.005,126.196 139.498,126.824 137.997,128.08C136.496,129.336 135.745,131.679 135.745,135.109L135.745,178.664C145.914,178.848 152.791,176.704 156.374,172.232C159.958,167.76 162.669,160.624 164.506,150.822L169.285,150.822L169.285,214.409L164.506,214.409C163.22,204.24 160.632,196.827 156.742,192.172C152.852,187.516 145.853,185.188 135.745,185.188L135.745,229.019C135.745,234.838 137.445,238.529 140.845,240.091C144.245,241.653 149.437,242.373 156.42,242.251L156.42,247.029L88.699,247.029L88.699,242.251ZM246.208,242.743C252.247,241.993 256.714,239.757 259.61,236.037C262.506,232.317 263.953,227.487 263.953,221.546C263.953,216.607 262.352,212.558 259.148,209.401C255.944,206.243 251.631,203.257 246.208,200.444L246.208,242.743ZM235.765,124.943C230.836,125.568 226.784,127.397 223.611,130.429C220.438,133.462 218.852,137.448 218.852,142.388C218.852,147.577 221.101,152.048 225.598,155.8C228.371,158.113 231.76,159.958 235.765,161.333L235.765,124.943Z" style="fill:white;"/>
                        </g>
                    </g>
                    <g transform="matrix(1.69951,0,0,7.31733,-1948.49,-271.736)">
                        <g>
                            <g transform="matrix(1,0,0,1,0.0271434,0)">
                                <path d="M1206.07,75.241C1207.3,75.199 1208.18,75.032 1208.69,74.738C1209.49,74.291 1209.89,73.453 1209.89,72.224L1209.89,51.456C1209.89,50.213 1209.5,49.375 1208.71,48.941C1208.24,48.676 1207.36,48.501 1206.07,48.418L1206.07,47.328L1230.4,47.328L1230.4,55.983L1229.36,55.983C1228.83,53.314 1227.93,51.446 1226.67,50.377C1225.42,49.308 1223.1,48.774 1219.72,48.774C1218.46,48.774 1217.66,48.917 1217.32,49.203C1216.98,49.49 1216.8,50.024 1216.8,50.807L1216.8,60.74C1219.12,60.782 1220.69,60.293 1221.51,59.273C1222.33,58.253 1222.94,56.625 1223.36,54.39L1224.45,54.39L1224.45,68.892L1223.36,68.892C1223.07,66.572 1222.48,64.882 1221.59,63.82C1220.7,62.758 1219.11,62.228 1216.8,62.228L1216.8,72.224C1216.8,73.551 1217.19,74.393 1217.97,74.749C1218.74,75.105 1219.93,75.269 1221.52,75.241L1221.52,76.331L1206.07,76.331L1206.07,75.241Z" style="fill:white;fill-rule:nonzero;"/>
                            </g>
                            <path d="M1234.18,50.01C1234.18,49.088 1234.5,48.302 1235.15,47.653C1235.8,47.003 1236.59,46.678 1237.51,46.678C1238.42,46.678 1239.19,47.003 1239.85,47.653C1240.5,48.302 1240.82,49.088 1240.82,50.01C1240.82,50.932 1240.5,51.718 1239.85,52.368C1239.19,53.017 1238.42,53.342 1237.51,53.342C1236.59,53.342 1235.8,53.017 1235.15,52.368C1234.5,51.718 1234.18,50.932 1234.18,50.01ZM1232.29,75.304C1233.05,75.178 1233.56,74.99 1233.84,74.738C1234.26,74.361 1234.47,73.684 1234.47,72.706L1234.47,60.09C1234.47,59.224 1234.32,58.634 1234.03,58.319C1233.74,58.005 1233.16,57.771 1232.29,57.617L1232.29,56.569L1240.53,56.569L1240.53,72.873C1240.53,73.809 1240.67,74.41 1240.94,74.676C1241.23,74.941 1241.75,75.151 1242.52,75.304L1242.52,76.331L1232.29,76.331L1232.29,75.304Z" style="fill:white;fill-rule:nonzero;"/>
                            <path d="M1245.07,75.304C1245.86,75.206 1246.43,74.993 1246.8,74.665C1247.17,74.337 1247.36,73.684 1247.36,72.706L1247.36,60.09C1247.36,59.224 1247.21,58.623 1246.91,58.288C1246.61,57.953 1246,57.729 1245.07,57.617L1245.07,56.569L1253.2,56.569L1253.2,59.65C1253.89,58.616 1254.76,57.76 1255.81,57.083C1256.87,56.405 1258.04,56.067 1259.32,56.067C1261.17,56.067 1262.6,56.542 1263.61,57.492C1264.62,58.442 1265.13,60.111 1265.13,62.5L1265.13,72.873C1265.13,73.837 1265.29,74.459 1265.62,74.738C1265.95,75.018 1266.5,75.206 1267.27,75.304L1267.27,76.331L1257.18,76.331L1257.18,75.304C1257.95,75.151 1258.48,74.941 1258.76,74.676C1259.04,74.41 1259.18,73.809 1259.18,72.873L1259.18,62.479C1259.18,61.501 1259.08,60.768 1258.88,60.279C1258.55,59.399 1257.88,58.958 1256.89,58.958C1256.15,58.958 1255.47,59.227 1254.85,59.765C1254.23,60.303 1253.75,60.844 1253.41,61.389L1253.41,72.873C1253.41,73.809 1253.55,74.41 1253.83,74.676C1254.11,74.941 1254.64,75.151 1255.4,75.304L1255.4,76.331L1245.07,76.331L1245.07,75.304Z" style="fill:white;fill-rule:nonzero;"/>
                            <path d="M1277.66,73.879C1278.36,73.879 1279.01,73.67 1279.61,73.25C1279.94,72.999 1280.34,72.608 1280.8,72.077L1280.8,65.811C1279.66,66.09 1278.65,66.531 1277.79,67.131C1276.32,68.151 1275.59,69.45 1275.59,71.029C1275.59,71.965 1275.8,72.674 1276.22,73.156C1276.65,73.638 1277.13,73.879 1277.66,73.879ZM1269.34,72.328C1269.34,70.4 1270.27,68.871 1272.13,67.739C1273.99,66.607 1276.9,65.469 1280.87,64.323L1280.87,61.201C1280.87,59.929 1280.6,58.99 1280.06,58.382C1279.52,57.774 1278.57,57.471 1277.2,57.471C1276.43,57.471 1275.8,57.614 1275.3,57.9C1274.81,58.187 1274.56,58.546 1274.56,58.979C1274.56,59.147 1274.59,59.287 1274.64,59.399C1274.7,59.51 1274.78,59.629 1274.89,59.755L1275.14,60.048C1275.34,60.286 1275.5,60.548 1275.62,60.834C1275.74,61.12 1275.79,61.424 1275.79,61.746C1275.79,62.556 1275.53,63.181 1274.99,63.621C1274.45,64.061 1273.83,64.281 1273.11,64.281C1272.29,64.281 1271.59,64.037 1271.01,63.548C1270.43,63.059 1270.14,62.353 1270.14,61.431C1270.14,59.783 1270.91,58.476 1272.46,57.512C1274.01,56.548 1275.92,56.067 1278.18,56.067C1280.61,56.067 1282.65,56.535 1284.28,57.471C1285.9,58.421 1286.71,60.167 1286.71,62.71L1286.71,73.104C1286.71,73.411 1286.79,73.673 1286.95,73.89C1287.11,74.106 1287.29,74.214 1287.49,74.214C1287.66,74.214 1287.81,74.183 1287.94,74.12C1288.07,74.057 1288.28,73.886 1288.56,73.607L1289.21,74.508C1288.37,75.486 1287.44,76.17 1286.42,76.562C1285.78,76.813 1285.1,76.939 1284.39,76.939C1283.12,76.939 1282.19,76.569 1281.6,75.828C1281.26,75.409 1281.02,74.787 1280.87,73.963C1279.68,75.151 1278.34,75.989 1276.84,76.478C1275.93,76.785 1275.04,76.939 1274.16,76.939C1272.99,76.939 1271.89,76.565 1270.87,75.818C1269.85,75.07 1269.34,73.907 1269.34,72.328Z" style="fill:white;fill-rule:nonzero;"/>
                            <path d="M1290.4,75.304C1291.18,75.206 1291.76,74.993 1292.13,74.665C1292.5,74.337 1292.68,73.684 1292.68,72.706L1292.68,60.09C1292.68,59.224 1292.54,58.623 1292.23,58.288C1291.93,57.953 1291.32,57.729 1290.4,57.617L1290.4,56.569L1298.53,56.569L1298.53,59.65C1299.22,58.616 1300.09,57.76 1301.14,57.083C1302.2,56.405 1303.37,56.067 1304.65,56.067C1306.5,56.067 1307.92,56.542 1308.94,57.492C1309.95,58.442 1310.46,60.111 1310.46,62.5L1310.46,72.873C1310.46,73.837 1310.62,74.459 1310.95,74.738C1311.28,75.018 1311.83,75.206 1312.59,75.304L1312.59,76.331L1302.51,76.331L1302.51,75.304C1303.28,75.151 1303.81,74.941 1304.09,74.676C1304.37,74.41 1304.5,73.809 1304.5,72.873L1304.5,62.479C1304.5,61.501 1304.41,60.768 1304.21,60.279C1303.88,59.399 1303.21,58.958 1302.22,58.958C1301.48,58.958 1300.8,59.227 1300.18,59.765C1299.56,60.303 1299.08,60.844 1298.74,61.389L1298.74,72.873C1298.74,73.809 1298.88,74.41 1299.16,74.676C1299.44,74.941 1299.96,75.151 1300.73,75.304L1300.73,76.331L1290.4,76.331L1290.4,75.304Z" style="fill:white;fill-rule:nonzero;"/>
                            <path d="M1314.64,66.314L1315.87,66.314C1316.57,69.513 1317.7,71.839 1319.26,73.292C1320.82,74.745 1322.6,75.472 1324.61,75.472C1326.57,75.472 1327.96,74.972 1328.78,73.973C1329.61,72.975 1330.02,71.923 1330.02,70.82C1330.02,69.534 1329.59,68.486 1328.72,67.676C1328.15,67.145 1326.99,66.454 1325.26,65.602L1322.47,64.218C1319.71,62.849 1317.76,61.494 1316.63,60.153C1315.5,58.812 1314.93,57.156 1314.93,55.186C1314.93,53.091 1315.68,51.135 1317.18,49.319C1318.68,47.502 1320.99,46.594 1324.09,46.594C1325.67,46.594 1327.19,46.832 1328.67,47.307C1330.14,47.782 1330.98,48.019 1331.19,48.019C1331.67,48.019 1332,47.883 1332.18,47.611C1332.36,47.338 1332.51,46.979 1332.62,46.531L1333.9,46.531L1333.9,55.878L1332.7,55.878C1332.13,53.712 1331.12,51.847 1329.67,50.283C1328.23,48.718 1326.47,47.936 1324.4,47.936C1322.95,47.936 1321.8,48.33 1320.95,49.12C1320.11,49.909 1319.69,50.869 1319.69,52.001C1319.69,53.356 1320.09,54.369 1320.88,55.04C1321.66,55.724 1323.4,56.73 1326.1,58.057L1329.33,59.65C1330.77,60.362 1331.91,61.152 1332.76,62.018C1334.36,63.639 1335.15,65.609 1335.15,67.928C1335.15,70.093 1334.3,72.136 1332.59,74.057C1330.87,75.978 1328.13,76.939 1324.36,76.939C1323.49,76.939 1322.62,76.858 1321.73,76.698C1320.84,76.537 1319.97,76.289 1319.1,75.954L1318.26,75.639C1318.07,75.584 1317.88,75.538 1317.7,75.503C1317.52,75.468 1317.36,75.451 1317.24,75.451C1316.79,75.451 1316.48,75.58 1316.31,75.839C1316.15,76.097 1316,76.464 1315.87,76.939L1314.64,76.939L1314.64,66.314Z" style="fill:white;fill-rule:nonzero;"/>
                            <path d="M1344.08,56.569L1344.08,71.134C1344.08,72 1344.19,72.636 1344.4,73.041C1344.76,73.753 1345.48,74.11 1346.56,74.11C1347.24,74.11 1347.91,73.893 1348.57,73.46C1348.94,73.223 1349.42,72.824 1349.99,72.266L1349.99,60.09C1349.99,59.196 1349.81,58.571 1349.46,58.215C1349.1,57.858 1348.38,57.659 1347.31,57.617L1347.31,56.569L1355.86,56.569L1355.86,72.014C1355.86,72.908 1356.03,73.526 1356.36,73.869C1356.7,74.211 1357.35,74.424 1358.33,74.508L1358.33,75.493C1355.68,75.744 1354.01,75.929 1353.31,76.048C1352.62,76.167 1351.51,76.464 1349.99,76.939L1349.99,74.11C1348.97,74.99 1348.13,75.612 1347.46,75.975C1346.28,76.617 1345.06,76.939 1343.79,76.939C1342.4,76.939 1341.12,76.499 1339.92,75.619C1338.73,74.738 1338.13,73.174 1338.13,70.924L1338.13,60.09C1338.13,59.182 1337.98,58.588 1337.69,58.309C1337.4,58.029 1336.83,57.799 1335.99,57.617L1335.99,56.569L1344.08,56.569Z" style="fill:white;fill-rule:nonzero;"/>
                        </g>
                    </g>
                </g>
            </g>
        </g>
    </g>
</svg>
